<?xml version="1.0" encoding="UTF-8" standalone="no"?>
<!DOCTYPE svg PUBLIC "-//W3C//DTD SVG 1.1//EN" "http://www.w3.org/Graphics/SVG/1.1/DTD/svg11.dtd">
<svg width="100%" height="100%" viewBox="0 0 280 280" version="1.1" xmlns="http://www.w3.org/2000/svg" xmlns:xlink="http://www.w3.org/1999/xlink" xml:space="preserve" xmlns:serif="http://www.serif.com/" style="fill-rule:evenodd;clip-rule:evenodd;stroke-linejoin:round;stroke-miterlimit:2;">
    <g transform="matrix(1.03603,0,0,1.10019,-2.16347,-5.69297)">
        <rect x="2.088" y="5.175" width="270.263" height="254.503" style="fill:rgb(255,138,14);"/>
    </g>
    <g transform="matrix(1,0,0,1,8.5,76.457)">
        <path id="Auswahl" d="M72,54.48C72.435,56.892 72.903,61.164 72.963,63.6C72.984,64.447 73.243,65.491 73.104,66.24L69.831,74.16C69.447,75.276 69.725,75.972 69.478,76.8L67.02,80.839L65.083,82.8L61.373,87.079C60.579,87.893 59.614,88.534 59.002,89.52C58.373,90.533 58.143,92.741 57.67,94.08L56.607,96.72L54.007,105.12L52.963,111.36L51.804,117.36C51.675,118.488 51.66,121.217 52.258,122.158C53.71,124.445 55.807,124.186 58.08,124.342C58.858,124.395 59.441,124.584 60.24,124.515L61.191,124.335C63.855,123.483 60.499,120.675 59.571,119.794C59.244,119.484 59.016,119.261 58.954,118.791C58.875,118.212 60.406,114.533 60.742,113.76C61.906,111.084 65.215,104.532 67.071,102.547L72.72,97.344L78.24,93.557L82.039,89.839L84.24,88.056C84.73,87.619 85.987,86.208 86.727,86.83C87.144,87.178 86.88,89.141 86.88,89.76L86.88,96.72C86.885,99.171 87.607,99.972 88.361,102.24C90.437,108.49 90.739,108.521 93.6,114.24C94.704,116.448 96.535,120.655 98.707,121.851C99.346,122.201 101.46,122.391 102.24,122.4L106.8,122.4C107.868,122.398 108.838,122.58 108.924,121.195C108.953,120.749 108.857,120.18 108.646,119.784C107.811,118.229 105.295,118.047 104.311,116.849C103.707,116.11 102.713,113.571 102.276,112.56C100.678,108.862 99.509,106.191 99.603,102C99.744,95.755 104.079,88.767 106.416,83.04C107.091,81.384 108.375,76.783 109.493,75.783C110.088,75.252 111.56,74.424 112.32,74.151L120,72.648C121.174,72.528 122.902,73.107 124.08,73.385L131.76,75.168L134.16,75.43L141.36,76.431L150.48,78.579L158.4,80.434L162.72,81.571C163.846,82.056 164.828,82.875 165.84,83.561C166.872,84.259 168.072,85.042 168.689,86.16C169.575,87.771 170.784,94.335 171.276,96.48L174.754,107.28L176.636,114.24L178.812,118.08L182.223,123.6C182.876,124.459 183.456,125.386 184.56,125.688C186.404,126.195 191.379,126.547 193.2,126.058C194.12,125.813 195.862,125.338 195.567,124.078C194.756,120.605 189.881,122.088 188.211,120.792C187.354,120.13 186.437,117.927 186.003,116.88C185.465,115.584 184.013,112.575 183.953,111.36C183.9,110.309 184.716,107.292 184.973,106.08L186.55,97.92C186.658,97.231 186.994,95.568 187.913,95.568C188.477,95.568 189.204,96.557 189.61,96.936C190.594,97.855 191.544,98.225 192.72,98.823L197.76,101.52C198.987,102.144 200.866,102.97 201.79,103.944C202.296,104.479 202.86,105.437 203.28,106.08C205.683,109.764 206.482,111.54 207.939,115.68C208.385,116.95 208.256,118.303 208.928,119.499C209.765,120.991 211.995,121.639 213.6,121.87L215.04,122.014C215.832,122.182 216.809,122.823 217.613,122.46C218.396,122.107 218.364,120.747 218.542,120C218.667,119.477 218.828,119.124 218.811,118.56C218.792,117.78 217.81,114.504 217.443,113.76L216.281,111.84L214.457,107.76L208.51,94.08C207.879,92.991 205.455,90.353 204.557,89.28C203.124,87.567 202.28,86.182 201.231,84.24C200.873,83.575 200.189,82.637 200.595,81.881C200.892,81.327 202.462,80.297 203.04,79.887C203.979,79.217 206.487,77.465 207.6,77.52C208.925,77.585 209.909,78.852 210.826,79.642L215.76,83.211C218.523,85.188 222.908,88.467 225.089,90.96C225.956,91.951 225.929,92.369 226.611,93.339L231.238,99.043L237.284,104.16L238.877,105.821L240.62,107.347L245.828,112.467C246.841,113.415 249.61,116.165 250.582,116.77C252.377,117.888 252.901,117.612 254.641,117.963C255.488,118.135 255.857,118.347 256.801,118.294L258.721,117.915C259.762,117.715 262.448,117.156 262.897,116.107C263.257,115.263 262.496,113.465 262.256,112.56C261.692,110.431 260.597,106.227 260.643,104.16L260.881,100.8L260.881,91.2C260.849,88.601 259.213,80.134 258.581,77.28L257.643,72.72L257.331,71.04L256.239,68.64L255.704,66.96C255.161,65.851 254.468,65.645 253.825,64.951C253.366,64.459 252.497,63.022 252.183,62.4C251.285,60.622 252.255,59.911 251.276,58.32C249.73,55.805 246.569,54.847 244.426,52.32L236.84,43.44L232.822,39.36L223.92,30.022L218.64,25.615L208.8,17.462L204.24,14.542C201.329,12.691 197.489,9.888 193.92,9.84L191.04,9.84C189.113,9.864 186.948,10.411 185.04,10.723L183.36,10.872L179.04,11.477C177.435,11.59 174.879,10.74 173.28,10.325C170.098,9.502 166.954,8.77 163.68,8.441L158.4,7.91L156,7.91L152.4,7.462L147.6,7.159L139.68,5.897L125.52,2.467L117.84,1.37L115.68,0.946L114,0.946L108,0.043L102.48,0.48L99.6,0.48C96.855,0.492 93.835,1.543 91.2,2.354L86.16,3.876L80.16,6.898C76.896,8.489 69.499,12.331 66.79,14.366L61.159,19.853C59.448,21.521 56.079,24.595 54.723,26.443C54.022,27.401 53.455,28.57 53.321,29.76C53.16,31.202 53.496,32.117 52.865,33.6L47.103,44.16L45.588,47.28L44.782,49.92L42.696,53.52C42.036,54.838 42.507,54.826 41.458,56.88L36.543,65.76L34.411,71.28L29.741,78.24L26.34,85.2C24.336,89.208 21.423,94.92 18.411,98.139L10.56,104.369L3.36,107.573C2.729,107.902 1.827,108.281 1.368,108.814C0.533,109.783 0.017,112.015 0,113.28L0,114.48C0.015,115.481 0.046,115.692 0.382,116.64C1.491,119.779 3.089,119.859 6,119.532C8.213,119.285 8.859,119.285 11.04,118.627C12.831,118.087 14.175,117.384 16.08,117.36L18.48,117.36C21.658,117.317 24.106,114.972 26.4,113.103C27.519,112.193 28.421,112.083 29.239,111.447L32.64,107.782L35.287,105.557L38.815,101.76L42,97.68L43.591,95.347L45.694,93.12L49.049,88.08L51.991,84.96L54.859,80.88L58.188,76.56L62.758,70.8L68.818,59.28C69.567,57.826 70.563,55.241 72,54.48Z" style="fill:white;fill-rule:nonzero;"/>
    </g>
</svg>
